<svg version="1.1" id="Layer_1" xmlns="http://www.w3.org/2000/svg" xmlns:xlink="http://www.w3.org/1999/xlink" x="0px" y="0px"
	 width="100%" viewBox="0 0 512 512" enable-background="new 0 0 512 512" xml:space="preserve">
<path fill="#000000" opacity="1.000000" stroke="none" 
	d="
M302.000000,513.000000 
	C201.357773,513.000000 101.215538,513.000000 1.036655,513.000000 
	C1.036655,342.399414 1.036655,171.798813 1.036655,1.099110 
	C171.558914,1.099110 342.117889,1.099110 512.838440,1.099110 
	C512.838440,171.666550 512.838440,342.333252 512.838440,513.000000 
	C442.798798,513.000000 372.649384,513.000000 302.000000,513.000000 
M369.889587,293.609436 
	C364.885895,286.378235 359.882172,279.147034 354.841034,271.861755 
	C364.307800,259.231049 373.614685,246.813644 383.357727,233.814301 
	C373.631897,233.814301 364.824310,233.933899 356.023315,233.745270 
	C353.187866,233.684509 351.524994,234.616547 349.977142,236.959915 
	C343.746338,246.393066 337.321198,255.698090 330.936432,265.028931 
	C330.283386,265.983337 329.419495,266.793427 327.974976,268.447296 
	C327.974976,244.065826 327.974976,220.818222 327.974976,197.421814 
	C318.458649,197.421814 309.241302,197.421814 299.991699,197.421814 
	C299.991699,237.291946 299.991699,276.861145 299.991699,316.571381 
	C309.446045,316.571381 318.660828,316.571381 328.365845,316.571381 
	C328.365845,303.122192 328.365845,289.974487 328.365845,275.460968 
	C336.486816,290.068695 343.904419,303.411194 351.391510,316.878693 
	C357.112732,316.878693 362.767212,316.878693 368.421661,316.878693 
	C373.952545,316.878693 379.483429,316.878693 385.913116,316.878693 
	C380.242218,308.682465 375.243378,301.457520 369.889587,293.609436 
M104.891533,276.500061 
	C104.891533,269.064026 104.891533,261.627960 104.891533,253.809769 
	C111.815697,253.809769 118.236031,253.809769 125.053825,253.809769 
	C125.053825,248.638855 125.053833,243.847565 125.053833,239.056290 
	C125.053833,237.434616 125.053825,235.812958 125.053825,233.809982 
	C121.511322,233.809982 118.389427,233.809982 115.267525,233.809982 
	C111.971291,233.809982 108.675056,233.809982 103.847084,233.809982 
	C105.169800,228.270752 105.231560,222.758102 107.732529,218.778320 
	C111.421700,212.907761 118.198990,215.972687 123.974869,216.171463 
	C124.554863,209.606491 125.104797,203.381882 125.662941,197.064270 
	C116.207558,194.799362 107.149933,194.630051 98.058205,196.588623 
	C86.535423,199.070923 79.671066,206.135132 77.849976,217.767548 
	C77.038254,222.952469 76.853149,228.235489 76.348946,233.861237 
	C70.778091,233.861237 65.347961,233.861237 59.773613,233.861237 
	C59.773613,240.693695 59.773613,247.116608 59.773613,253.934814 
	C65.300209,253.934814 70.560165,253.934814 76.287292,253.934814 
	C76.287292,275.046875 76.287292,295.766479 76.287292,316.617371 
	C86.005821,316.617371 95.239540,316.617371 104.891533,316.617371 
	C104.891533,303.404266 104.891533,290.452179 104.891533,276.500061 
M266.350037,318.722351 
	C273.516541,317.698059 280.683044,316.673798 287.264038,315.733215 
	C287.264038,307.773651 287.264038,300.986389 287.264038,294.034210 
	C268.888397,300.031311 256.886475,298.019012 249.808868,288.032501 
	C244.528290,280.581604 244.442551,268.568939 250.452133,261.396362 
	C253.086700,258.251923 256.945312,255.518524 260.799561,254.137634 
	C268.976562,251.207977 277.065094,253.205765 285.092926,257.217102 
	C285.809265,250.008865 286.479584,243.263596 287.157715,236.439499 
	C275.500000,231.081802 263.634033,230.704987 251.722366,233.135925 
	C236.251160,236.293274 224.192749,244.448471 219.125427,260.001282 
	C214.037476,275.617432 215.479340,290.759613 226.709412,303.598907 
	C236.864487,315.209167 250.610123,318.574402 266.350037,318.722351 
M165.016739,208.520874 
	C165.016739,204.768814 165.016739,201.016754 165.016739,197.283417 
	C155.215897,197.283417 146.111206,197.283417 136.757767,197.283417 
	C136.757767,237.166275 136.757767,276.861298 136.757767,316.596100 
	C146.279633,316.596100 155.508194,316.596100 165.016739,316.596100 
	C165.016739,280.708649 165.016739,245.111115 165.016739,208.520874 
M394.083099,236.680862 
	C394.083099,263.279968 394.083099,289.879089 394.083099,316.600464 
	C403.844482,316.600464 413.072723,316.600464 422.737366,316.600464 
	C422.737366,314.527740 422.728210,312.732056 422.738800,310.936493 
	C422.805603,299.609772 422.514771,288.266296 423.038086,276.960571 
	C423.695374,262.760162 431.834747,255.570358 445.965576,255.867294 
	C448.231201,255.914902 450.494659,256.067200 453.083252,256.185944 
	C453.537079,248.325974 453.975616,240.730743 454.420990,233.016647 
	C439.175171,229.378494 427.791229,233.821243 419.970032,247.441116 
	C419.970032,243.020172 419.970032,238.599213 419.970032,233.816711 
	C411.860321,233.816711 404.073059,233.765381 396.289032,233.899414 
	C395.544983,233.912247 394.820831,235.081360 394.083099,236.680862 
M178.998764,298.499329 
	C178.998764,304.577911 178.998764,310.656525 178.998764,316.655823 
	C188.816650,316.655823 197.909744,316.655823 207.249329,316.655823 
	C207.249329,289.044586 207.249329,261.653015 207.249329,234.029846 
	C197.845673,234.029846 188.620834,234.029846 178.998764,234.029846 
	C178.998764,255.307327 178.998764,276.403442 178.998764,298.499329 
M207.500015,202.867340 
	C207.500504,200.899048 207.946716,198.919708 204.675919,198.990723 
	C196.247894,199.173676 187.813263,199.051941 179.197723,199.051941 
	C179.197723,206.224121 179.197723,212.956314 179.197723,219.885315 
	C188.619644,219.885315 197.842407,219.885315 207.500076,219.885315 
	C207.500076,214.390961 207.500076,209.098999 207.500015,202.867340 
z"/>
<path fill="#FDFDFD" opacity="1.000000" stroke="none" 
	d="
M370.067078,293.921021 
	C375.243378,301.457520 380.242218,308.682465 385.913116,316.878693 
	C379.483429,316.878693 373.952545,316.878693 368.421661,316.878693 
	C362.767212,316.878693 357.112732,316.878693 351.391510,316.878693 
	C343.904419,303.411194 336.486816,290.068695 328.365845,275.460968 
	C328.365845,289.974487 328.365845,303.122192 328.365845,316.571381 
	C318.660828,316.571381 309.446045,316.571381 299.991699,316.571381 
	C299.991699,276.861145 299.991699,237.291946 299.991699,197.421814 
	C309.241302,197.421814 318.458649,197.421814 327.974976,197.421814 
	C327.974976,220.818222 327.974976,244.065826 327.974976,268.447296 
	C329.419495,266.793427 330.283386,265.983337 330.936432,265.028931 
	C337.321198,255.698090 343.746338,246.393066 349.977142,236.959915 
	C351.524994,234.616547 353.187866,233.684509 356.023315,233.745270 
	C364.824310,233.933899 373.631897,233.814301 383.357727,233.814301 
	C373.614685,246.813644 364.307800,259.231049 354.841034,271.861755 
	C359.882172,279.147034 364.885895,286.378235 370.067078,293.921021 
z"/>
<path fill="#FCFCFC" opacity="1.000000" stroke="none" 
	d="
M104.891533,277.000061 
	C104.891533,290.452179 104.891533,303.404266 104.891533,316.617371 
	C95.239540,316.617371 86.005821,316.617371 76.287292,316.617371 
	C76.287292,295.766479 76.287292,275.046875 76.287292,253.934814 
	C70.560165,253.934814 65.300209,253.934814 59.773613,253.934814 
	C59.773613,247.116608 59.773613,240.693695 59.773613,233.861237 
	C65.347961,233.861237 70.778091,233.861237 76.348946,233.861237 
	C76.853149,228.235489 77.038254,222.952469 77.849976,217.767548 
	C79.671066,206.135132 86.535423,199.070923 98.058205,196.588623 
	C107.149933,194.630051 116.207558,194.799362 125.662941,197.064270 
	C125.104797,203.381882 124.554863,209.606491 123.974869,216.171463 
	C118.198990,215.972687 111.421700,212.907761 107.732529,218.778320 
	C105.231560,222.758102 105.169800,228.270752 103.847084,233.809982 
	C108.675056,233.809982 111.971291,233.809982 115.267525,233.809982 
	C118.389427,233.809982 121.511322,233.809982 125.053825,233.809982 
	C125.053825,235.812958 125.053833,237.434616 125.053833,239.056290 
	C125.053833,243.847565 125.053825,248.638855 125.053825,253.809769 
	C118.236031,253.809769 111.815697,253.809769 104.891533,253.809769 
	C104.891533,261.627960 104.891533,269.064026 104.891533,277.000061 
z"/>
<path fill="#FCFCFC" opacity="1.000000" stroke="none" 
	d="
M265.887939,318.742004 
	C250.610123,318.574402 236.864487,315.209167 226.709412,303.598907 
	C215.479340,290.759613 214.037476,275.617432 219.125427,260.001282 
	C224.192749,244.448471 236.251160,236.293274 251.722366,233.135925 
	C263.634033,230.704987 275.500000,231.081802 287.157715,236.439499 
	C286.479584,243.263596 285.809265,250.008865 285.092926,257.217102 
	C277.065094,253.205765 268.976562,251.207977 260.799561,254.137634 
	C256.945312,255.518524 253.086700,258.251923 250.452133,261.396362 
	C244.442551,268.568939 244.528290,280.581604 249.808868,288.032501 
	C256.886475,298.019012 268.888397,300.031311 287.264038,294.034210 
	C287.264038,300.986389 287.264038,307.773651 287.264038,315.733215 
	C280.683044,316.673798 273.516541,317.698059 265.887939,318.742004 
z"/>
<path fill="#FAFAFA" opacity="1.000000" stroke="none" 
	d="
M165.016739,209.017227 
	C165.016739,245.111115 165.016739,280.708649 165.016739,316.596100 
	C155.508194,316.596100 146.279633,316.596100 136.757767,316.596100 
	C136.757767,276.861298 136.757767,237.166275 136.757767,197.283417 
	C146.111206,197.283417 155.215897,197.283417 165.016739,197.283417 
	C165.016739,201.016754 165.016739,204.768814 165.016739,209.017227 
z"/>
<path fill="#FBFBFB" opacity="1.000000" stroke="none" 
	d="
M394.085266,236.197266 
	C394.820831,235.081360 395.544983,233.912247 396.289032,233.899414 
	C404.073059,233.765381 411.860321,233.816711 419.970032,233.816711 
	C419.970032,238.599213 419.970032,243.020172 419.970032,247.441116 
	C427.791229,233.821243 439.175171,229.378494 454.420990,233.016647 
	C453.975616,240.730743 453.537079,248.325974 453.083252,256.185944 
	C450.494659,256.067200 448.231201,255.914902 445.965576,255.867294 
	C431.834747,255.570358 423.695374,262.760162 423.038086,276.960571 
	C422.514771,288.266296 422.805603,299.609772 422.738800,310.936493 
	C422.728210,312.732056 422.737366,314.527740 422.737366,316.600464 
	C413.072723,316.600464 403.844482,316.600464 394.083099,316.600464 
	C394.083099,289.879089 394.083099,263.279968 394.085266,236.197266 
z"/>
<path fill="#FEFEFE" opacity="1.000000" stroke="none" 
	d="
M178.998764,297.999451 
	C178.998764,276.403442 178.998764,255.307327 178.998764,234.029846 
	C188.620834,234.029846 197.845673,234.029846 207.249329,234.029846 
	C207.249329,261.653015 207.249329,289.044586 207.249329,316.655823 
	C197.909744,316.655823 188.816650,316.655823 178.998764,316.655823 
	C178.998764,310.656525 178.998764,304.577911 178.998764,297.999451 
z"/>
<path fill="#FEFEFE" opacity="1.000000" stroke="none" 
	d="
M207.500046,203.337189 
	C207.500076,209.098999 207.500076,214.390961 207.500076,219.885315 
	C197.842407,219.885315 188.619644,219.885315 179.197723,219.885315 
	C179.197723,212.956314 179.197723,206.224121 179.197723,199.051941 
	C187.813263,199.051941 196.247894,199.173676 204.675919,198.990723 
	C207.946716,198.919708 207.500504,200.899048 207.500046,203.337189 
z"/>
</svg>