<svg width="32" height="32" viewBox="0 0 32 32" fill="none" xmlns="http://www.w3.org/2000/svg">
<g clip-path="url(#clip0_28_33)">
<path d="M4.82927 19.8657C3.64191 20.0142 2.66699 19.03 2.66699 17.8333C2.66699 16.6367 3.6442 15.6856 4.82487 15.4908C10.3003 14.5877 14.588 10.2999 15.4912 4.82454C15.6859 3.64388 16.637 2.66667 17.8337 2.66667C19.0303 2.66667 20.0146 3.64158 19.866 4.82895C18.8866 12.6594 12.6597 18.8863 4.82927 19.8657ZM4.81949 13.2837C3.64695 13.5225 2.66699 12.53 2.66699 11.3333C2.66699 10.1367 3.66321 9.20298 4.79579 8.81679C6.68717 8.17185 8.17217 6.68685 8.81711 4.79546C9.20331 3.66288 10.137 2.66667 11.3337 2.66667C12.5303 2.66667 13.5229 3.64662 13.2841 4.81917C12.4205 9.05943 9.05975 12.4202 4.81949 13.2837ZM4.74454 6.46951C3.6944 7.04318 2.66699 6.02995 2.66699 4.83333C2.66699 3.63671 3.63704 2.66667 4.83366 2.66667C6.03028 2.66667 7.04351 3.69408 6.46984 4.74422C6.2736 5.10344 6.02577 5.43615 5.73112 5.7308C5.43647 6.02544 5.10376 6.27328 4.74454 6.46951Z" fill="white"/>
</g>
<g clip-path="url(#clip1_28_33)">
<path d="M28.5047 13.4676C29.6921 13.3191 30.667 14.3034 30.667 15.5C30.667 16.6966 29.6898 17.6478 28.5091 17.8425C23.0337 18.7456 18.7459 23.0334 17.8428 28.5088C17.6481 29.6895 16.6969 30.6667 15.5003 30.6667C14.3037 30.6667 13.3194 29.6918 13.4679 28.5044C14.4474 20.6739 20.6743 14.4471 28.5047 13.4676ZM28.5145 20.0496C29.687 19.8108 30.667 20.8034 30.667 22C30.667 23.1966 29.6708 24.1304 28.5382 24.5166C26.6468 25.1615 25.1618 26.6465 24.5169 28.5379C24.1307 29.6705 23.1969 30.6667 22.0003 30.6667C20.8037 30.6667 19.8111 29.6867 20.0499 28.5142C20.9135 24.2739 24.2742 20.9132 28.5145 20.0496ZM28.5894 26.8638C29.6396 26.2902 30.667 27.3034 30.667 28.5C30.667 29.6966 29.6969 30.6667 28.5003 30.6667C27.3037 30.6667 26.2905 29.6393 26.8641 28.5891C27.0604 28.2299 27.3082 27.8972 27.6029 27.6025C27.8975 27.3079 28.2302 27.0601 28.5894 26.8638Z" fill="white"/>
</g>
<defs>
<clipPath id="clip0_28_33">
<rect width="18.6667" height="18.6667" fill="white" transform="matrix(1 0 0 -1 2.66699 21.3333)"/>
</clipPath>
<clipPath id="clip1_28_33">
<rect width="18.6667" height="18.6667" fill="white" transform="matrix(-1 0 0 1 30.667 12)"/>
</clipPath>
</defs>
</svg>
