<?xml version="1.0" encoding="UTF-8"?>
<svg version="1.1" viewBox="0 0 2048 2048" width="32" height="32" xmlns="http://www.w3.org/2000/svg">
<path transform="translate(259)" d="m0 0h937l18 6 14 7 11 8 10 9 10 14 8 16 4 17 1 10v739l-2 1h-125l-1-1v-218h-194v225l-5 3-23 10-18 11-13 11-12 12-10 15-8 16-5 15-2 11-1 513-2 1h-251v597h-339l-20-6-16-8-13-10-9-9-7-10-8-15-5-18-1-8v-1881l3-16 5-13 7-13 7-9 13-13 14-9 14-6zm55 184v275h194v-275zm323 0v275h193l1-203v-72zm313 0v275h194v-275zm-636 424v276h194v-276zm323 0v276h193l1-1v-275zm-296 445-27 1v275l191 1 3-1v-275l-100-1zm331 0-35 1v275l82 1h79l33-1v-275l-111-1zm-358 404v276h194v-276z" fill="#E42023"/>
<path transform="translate(1015,900)" d="m0 0h779l18 2 14 4 14 7 11 8 8 9 5 10 2 9v1047l-2 11-6 12-8 9-14 9-15 6-14 4-8 1h-281v-335h-221v335h-291l-25-7-16-8-12-11-6-8-4-11-1-15v-986l1-58 3-9 8-11 9-8 14-8 16-5 10-2zm82 102-43 1v154h163l1-5v-149l-47-1zm231 1v154l161 1 3-1v-154zm265 0v154h164v-154zm-539 238v155h163l1-3v-152zm274 0v155h164v-155zm265 0v155h164v-155zm-512 249-27 1v154h163l1-5v-149l-21-1zm247 1v154l161 1 3-1v-154zm265 0v154h164v-154zm-539 226v154h163l1-8v-146zm539 3v155h164v-155z" fill="#E42023"/>
</svg>
