<?xml version="1.0" encoding="UTF-8"?>
<svg version="1.1" viewBox="0 0 2048 861" width="1280" height="1280" fill="white" xmlns="http://www.w3.org/2000/svg">
<path transform="translate(2039,1)" d="m0 0h6l3 3-1 5-3 2-90 15-74 14-68 14-66 15-50 12-62 16-65 18-51 15-55 17-49 16-62 21-55 20-45 17-50 20-34 14-26 11-30 13-29 13-35 16-34 16-33 16-56 28-19 10-52 28-46 26-27 16-29 17-21 13-24 15-19 12-20 13-42 28-19 13-20 14-17 12-18 13-19 14-21 16-16 12-28 22-16 13-14 11-13 11-11 9-13 11-14 12-11 9-13 12-8 7-10 9-8 7-26 24-15 14-17 16-33 33-2 1h-225l-11-17-8-13 6-7 13-12 9-9 8-7 16-15 8-7 11-10 8-7 13-11 15-13 11-9 13-11 14-11 17-14 17-13 14-11 21-16 19-14 36-26 23-16 19-13 33-22 23-15 22-14 24-15 28-17 22-13 26-15 24-14 24-13 23-13 33-17 19-10 27-14 28-14 50-24 68-31 35-15 40-17 70-28 42-16 41-15 42-15 71-24 64-20 57-17 50-14 56-15 64-16 59-14 64-14 59-12 68-13 70-12 76-12 79-11 81-10z"/>
<path transform="translate(646,572)" d="m0 0 5 1 18 13 19 14 18 13 57 42 18 13 38 28 18 13 57 42 18 13 57 42 18 13 19 14 5 4-3 9-7 14h-254l-19-14-36-26-19-14-36-26-19-14-36-26-19-14-54-39-4-4 14-12 11-9 16-13 15-12 14-11 18-14 13-10 21-16z"/>
<path transform="translate(32,303)" d="m0 0h250l19 14 14 10 38 28 18 13 38 28 18 13 38 28v4l-58 29-19 10-28 15-52 29-12 7-9-6-19-14-36-26-19-14-18-13-19-14-18-13-19-14-18-13-19-14-36-26-19-14-18-13-10-8 2-5z"/>
</svg>
