<svg width="32" height="32" viewBox="0 0 32 32" fill="none" xmlns="http://www.w3.org/2000/svg">
<path d="M25.8801 14.4732H28.6623C28.5774 13.047 28.2636 11.6438 27.733 10.3175L25.2903 11.7297C25.6019 12.5973 25.8064 13.5165 25.8801 14.4732ZM21.0351 3.22473C19.6831 2.58007 18.2315 2.17036 16.7423 2.01311V4.82768C17.7427 4.9584 18.719 5.23279 19.6412 5.64238L21.0351 3.22473ZM24.0133 9.25077L26.4352 7.85115C25.6092 6.63165 24.5885 5.55654 23.4138 4.66892L22.0144 7.09493C22.7774 7.71722 23.4501 8.4428 24.0133 9.25077ZM15.3498 25.8917C12.5459 25.8917 9.85687 24.7766 7.87422 22.7916C5.89157 20.8067 4.77773 18.1146 4.77773 15.3074C4.77773 10.3648 8.16457 6.22354 12.7398 5.06078C13.4292 4.8856 13.9601 4.29464 13.9601 3.58342C13.9601 2.7429 13.2293 2.08093 12.4093 2.26541C6.44811 3.60643 1.99561 8.93582 1.99561 15.3074C1.99542 17.0634 2.34075 18.8022 3.01187 20.4245C3.68298 22.0468 4.66674 23.5209 5.90696 24.7625C7.14718 26.0042 8.61956 26.9891 10.24 27.661C11.8605 28.3328 13.5973 28.6786 15.3512 28.6784C21.4953 28.6784 26.6587 24.5185 28.2115 18.8595C28.4398 18.0277 27.7732 17.2586 26.9106 17.2586C26.2294 17.2586 25.6548 17.7482 25.4562 18.3998C24.1352 22.7355 20.113 25.8917 15.3498 25.8917Z" fill="white"/>
<circle cx="15.5" cy="15.5" r="4.5" fill="white"/>
</svg>
