<svg width="32" height="32" viewBox="0 0 32 32" fill="none" xmlns="http://www.w3.org/2000/svg">
<path d="M7.10646 21.2386C6.81294 19.9576 6.66533 18.6475 6.66646 17.3333C6.66646 10.5493 10.5371 4.75198 15.9998 2.42398C21.4625 4.75198 25.3331 10.5493 25.3331 17.3333C25.3331 18.68 25.1811 19.988 24.8931 21.2386L27.5865 23.6333C27.7024 23.7364 27.7787 23.8767 27.8023 24.03C27.8259 24.1834 27.7953 24.3401 27.7158 24.4733L24.4385 29.9346C24.3863 30.0214 24.315 30.0952 24.2301 30.1503C24.1452 30.2054 24.0488 30.2405 23.9483 30.2528C23.8478 30.2652 23.7459 30.2545 23.6501 30.2215C23.5544 30.1886 23.4674 30.1342 23.3958 30.0626L20.3905 27.0573C20.1405 26.8072 19.8014 26.6667 19.4478 26.6666H12.5518C12.1982 26.6667 11.8591 26.8072 11.6091 27.0573L8.60379 30.0626C8.53218 30.1342 8.44521 30.1886 8.34947 30.2215C8.25374 30.2545 8.15175 30.2652 8.05125 30.2528C7.95076 30.2405 7.85439 30.2054 7.76947 30.1503C7.68455 30.0952 7.6133 30.0214 7.56113 29.9346L4.28379 24.4746C4.20389 24.3413 4.17309 24.1843 4.19671 24.0307C4.22032 23.877 4.29687 23.7365 4.41313 23.6333L7.10646 21.2386ZM15.9998 17.3333C16.707 17.3333 17.3853 17.0524 17.8854 16.5523C18.3855 16.0522 18.6665 15.3739 18.6665 14.6666C18.6665 13.9594 18.3855 13.2811 17.8854 12.781C17.3853 12.2809 16.707 12 15.9998 12C15.2926 12 14.6143 12.2809 14.1142 12.781C13.6141 13.2811 13.3331 13.9594 13.3331 14.6666C13.3331 15.3739 13.6141 16.0522 14.1142 16.5523C14.6143 17.0524 15.2926 17.3333 15.9998 17.3333Z" fill="#E72D2D"/>
</svg>
